<svg version="1.1" id="Layer_1" xmlns="http://www.w3.org/2000/svg" xmlns:xlink="http://www.w3.org/1999/xlink" x="0px" y="0px"
     viewBox="0 0 189.041 38.431" style="enable-background:new 0 0 189.041 38.431;" height="50px">
    <style type="text/css">
        .Arched_x0020_Green{fill:url(#SVGID_1_);stroke:#FFFFFF;stroke-width:0.25;stroke-miterlimit:1;}
        .st0{fill:#231F20;}
        .st1{fill:#007550;}
    </style>
    <linearGradient id="SVGID_1_" gradientUnits="userSpaceOnUse" x1="-481.3691" y1="457.3428" x2="-480.662" y2="456.6357">
        <stop  offset="0" style="stop-color:#20AC4B"/>
        <stop  offset="0.9831" style="stop-color:#19361A"/>
    </linearGradient>
    <path class="st0" d="M61.547,23.912c-1.392,0.848-3.026,1.109-4.64,1.109c-2.058,0-4.175-0.484-5.729-1.896
c-1.573-1.412-2.259-3.429-2.259-5.506c0-4.64,3.772-6.959,8.069-6.959c1.654,0,2.985,0.222,4.599,0.746
c0.161,0.061,0.383,0.101,0.323,0.404c-0.121,0.645-0.282,2.218-0.323,3.106H60.8c-0.02-0.585-0.04-1.15-0.121-1.735
c-0.968-1.028-2.239-1.392-3.61-1.392c-1.493,0-2.925,0.544-3.913,1.694c-0.888,1.029-1.19,2.521-1.19,3.873
c0,1.695,0.424,3.328,1.594,4.599c1.231,1.332,2.562,1.755,4.337,1.755c1.189,0,2.824-0.423,3.852-1.029l0.243,0.242L61.547,23.912z
"/>
    <path class="st0" d="M69.668,24.081c1.291,0.032,1.356-0.097,1.372-1.259v-3.454c-1.129-0.016-1.953-0.048-2.614-0.048
c-0.662,0-1.501,0.032-2.614,0.048v3.454c0,1.162,0.064,1.291,1.372,1.243v0.694c-1.065-0.049-1.872-0.081-2.502-0.081
s-1.453,0.032-2.518,0.081v-0.678c1.291,0.032,1.356-0.097,1.372-1.259v-7.23c-0.017-1.162-0.081-1.292-1.372-1.259v-0.678
c1.065,0.049,1.888,0.081,2.518,0.081s1.437-0.032,2.502-0.081v0.694c-1.307-0.049-1.372,0.081-1.372,1.243v2.76
c1.113,0.016,1.953,0.048,2.614,0.048c0.662,0,1.485-0.032,2.614-0.048v-2.76c-0.016-1.162-0.081-1.292-1.372-1.259v-0.678
c1.065,0.049,1.888,0.081,2.518,0.081c0.629,0,1.437-0.032,2.502-0.081v0.694c-1.308-0.049-1.372,0.081-1.372,1.243v7.23
c0,1.162,0.064,1.291,1.372,1.243v0.694c-1.065-0.049-1.873-0.081-2.502-0.081c-0.629,0-1.452,0.032-2.518,0.081V24.081z"/>
    <path class="st0" d="M90.262,14.35v-0.694c-1.065,0.049-1.872,0.081-2.501,0.081c-0.629,0-1.453-0.032-2.518-0.081v0.678
c1.291-0.032,1.356,0.097,1.372,1.259v7.23c-0.012,0.886-0.055,1.23-0.645,1.242c-0.29,0.027-0.821-0.393-1.047-0.709l-2.921-4.422
c1.339-0.484,2.405-1.436,2.405-2.953c0-0.662-0.081-1.017-0.549-1.501c-0.839-0.872-2.13-0.823-3.26-0.823
c-1.146,0.049-1.985,0.081-2.663,0.081c-0.678,0-1.533-0.032-2.679-0.081v0.678c1.291-0.032,1.355,0.097,1.372,1.259v7.23
c-0.016,1.162-0.081,1.291-1.372,1.259v0.678c1.065-0.049,1.888-0.081,2.518-0.081c0.629,0,1.437,0.032,2.502,0.081v-0.694
c-1.308,0.048-1.372-0.081-1.372-1.243v-7.844c0-0.113,0.032-0.242,0.064-0.371c0.307-0.048,0.646-0.081,0.968-0.081
c1.259,0,2.179,0.678,2.179,2.001c0,1.517-1.097,2.438-2.582,2.308l-0.113,0.29l3.615,5.633c0.484-0.049,0.968-0.081,1.453-0.081
c0.122,0,0.792,0.033,1.501,0.033c0.747,0,1.537-0.033,1.773-0.033c0.629,0,1.437,0.032,2.501,0.081v-0.694
c-1.307,0.048-1.372-0.081-1.372-1.243v-7.23C88.89,14.43,88.955,14.301,90.262,14.35z"/>
    <path class="st0" d="M91.777,21.418l0.049,1.42c0.5,0.743,1.759,1.243,2.598,1.243c1.372,0,2.534-0.726,2.534-2.195
c0-0.694-0.403-1.501-1.501-1.695l-1.582-0.274c-1.92-0.338-2.872-1.5-2.872-2.889c0-2.582,1.92-3.566,4.261-3.566
c1,0,1.984,0.146,3.018,0.565l0.064,0.194c-0.161,0.742-0.178,1.533-0.225,2.307h-0.726l-0.033-1.291
c-0.484-0.613-1.388-0.888-2.146-0.888c-1.339,0-2.308,0.807-2.308,1.888c0,1.259,0.855,1.517,1.888,1.695l1.307,0.242
c1.808,0.339,2.89,1.339,2.89,2.889c0,1.614-0.84,2.921-2.566,3.583c-0.5,0.193-1.63,0.307-2.163,0.307
c-1.162,0-2.34-0.242-3.373-0.791c0.194-0.904,0.242-1.823,0.242-2.743H91.777z"/>
    <path class="st0" d="M104.959,22.822c0,1.162,0.064,1.291,1.372,1.243v0.694c-1.065-0.049-1.872-0.081-2.502-0.081
c-0.63,0-1.452,0.032-2.517,0.081v-0.678c1.291,0.032,1.356-0.097,1.372-1.259v-8.086h-2.373c-0.387,0.048-0.532,0.161-0.726,0.517
c-0.032,0.274-0.049,0.678-0.081,1.081h-0.645c0.031-0.791-0.065-1.824-0.049-2.679c2.146,0.049,3.775,0.081,5.051,0.081
s2.873-0.032,5.084-0.081c-0.049,0.727-0.129,1.711-0.21,2.679h-0.63c0-0.226,0-0.452-0.031-0.678
c-0.113-0.807,0.049-0.904-0.84-0.92h-2.275V22.822z"/>
    <path class="st0" d="M134.551,13.736c-0.467,0-1.081-0.032-1.807-0.081v0.694c1.307-0.049,1.371,0.081,1.371,1.243v6.117
l-0.371-0.404l-2.566-2.953l-3.76-4.665c-0.71,0.017-1.242,0.049-1.678,0.049c-0.42,0-0.969-0.032-1.615-0.081v0.694
c1.309-0.049,1.373,0.081,1.373,1.243v7.23c0,0.832-0.037,1.134-0.536,1.221c-0.507-0.062-0.65-0.107-0.896-0.672l-4.181-9.764
h-1.146l-0.242,0.662l-0.274,0.662l-0.42,1.113l-2.549,6.262c-0.227,0.533-0.404,1.13-0.824,1.565
c-0.203,0.12-0.435,0.169-0.672,0.186c-0.594-0.066-0.633-0.351-0.633-1.235v-7.23c0-1.162,0.064-1.292,1.371-1.243v-0.694
c-1.064,0.049-1.871,0.081-2.5,0.081c-0.631,0-1.453-0.032-2.518-0.081v0.678c1.291-0.032,1.355,0.097,1.372,1.259v7.23
c-0.017,1.162-0.081,1.291-1.372,1.259v0.678c1.065-0.049,1.888-0.081,2.518-0.081c0.418,0,0.916,0.014,1.514,0.038l0.986-0.014
c0.318-0.015,0.594-0.024,0.838-0.024c0.469,0,1.049,0.032,1.824,0.081v-0.646c-0.323-0.097-1.404-0.113-1.243-0.581l0.726-2.179
h4.051l0.857,2.179c0.21,0.549-0.774,0.484-1.211,0.581v0.646c1.065-0.049,1.872-0.081,2.502-0.081c0.364,0,0.787,0.011,1.286,0.03
c0,0,0.405,0.005,0.566-0.004c0.222,0.009,0.649-0.012,0.649-0.012c0.231-0.009,0.44-0.014,0.626-0.014
c0.483,0,1.081,0.032,1.856,0.081v-0.694c-1.308,0.048-1.373-0.081-1.373-1.243v-6.633l7.23,8.538l1.328,0.091l0.08-0.081
l0.012-0.284l-0.031-1.211v-7.649c0-1.162,0.065-1.292,1.371-1.243v-0.694C135.633,13.704,135.035,13.736,134.551,13.736z
 M117.028,20.45l1.614-4.099l1.678,4.099H117.028z"/>
    <path class="st0" d="M138.259,21.354l-0.726,2.179c-0.162,0.468,0.92,0.484,1.242,0.581v0.646c-0.775-0.049-1.355-0.081-1.824-0.081
c-0.467,0-1.049,0.032-1.939,0.14v-0.694c0.439-0.06,0.762-0.092,1.036-0.253c0.419-0.435,0.597-1.033,0.823-1.565l2.55-6.262
l0.419-1.113l0.275-0.662l0.242-0.661h1.145l4.18,9.764c0.274,0.629,0.419,0.613,1.081,0.694h0.193v0.694
c-1.08-0.049-1.871-0.081-2.501-0.081s-1.437,0.032-2.501,0.081v-0.646c0.436-0.097,1.42-0.032,1.21-0.581l-0.855-2.179H138.259z
 M138.646,20.45h3.292l-1.679-4.099L138.646,20.45z"/>
    <path class="st0" d="M161.885,23.912c-1.391,0.848-3.025,1.109-4.639,1.109c-2.058,0-4.176-0.484-5.729-1.896
c-1.573-1.412-2.26-3.429-2.26-5.506c0-4.64,3.772-6.959,8.068-6.959c1.654,0,2.986,0.222,4.6,0.746
c0.161,0.061,0.383,0.101,0.322,0.404c-0.121,0.645-0.282,2.218-0.322,3.106h-0.787c-0.02-0.585-0.04-1.15-0.121-1.735
c-0.968-1.028-2.238-1.392-3.61-1.392c-1.493,0-2.925,0.544-3.913,1.694c-0.888,1.029-1.189,2.521-1.189,3.873
c0,1.695,0.423,3.328,1.593,4.599c1.23,1.332,2.562,1.755,4.337,1.755c1.19,0,2.824-0.423,3.853-1.029l0.242,0.242L161.885,23.912z"
    />
    <path class="st0" d="M188.572,21.983c-0.113,0.564-0.209,1.274-0.322,1.565c-0.42,0.162-1.469,0.194-4.084,0.194v-4.357h2.146
c0.291,0,0.808,0.032,0.889,0.403c0.097,0.323,0.048,0.662,0.08,1h0.678v-3.47h-0.646c0,0.372-0.032,0.694-0.112,0.968
c-0.049,0.291-0.275,0.291-0.501,0.291h-2.534V15.14c0-0.193,0.049-0.403,0.113-0.581c0.469,0,2.534-0.016,3.115,0.032
c0.355,0.033,0.727,0.097,0.742,0.355c0.032,0.355,0.064,0.726,0.064,1.081h0.613l0.161-1.775l0.065-0.597
c-1.421,0.032-2.842,0.081-4.262,0.081c-1.436,0-2.855-0.049-4.276-0.081v0.613c1.291,0.113,1.356,0.242,1.388,1.243v7.585
c0,0.645-0.105,0.964-0.715,0.987v-0.002c-0.404-0.048-0.888-0.387-1.129-0.726l-2.922-4.422c1.34-0.484,2.404-1.436,2.404-2.953
c0-0.662-0.08-1.017-0.549-1.501c-0.838-0.872-2.13-0.823-3.26-0.823c-1.146,0.049-1.985,0.081-2.662,0.081
c-0.679,0-1.534-0.032-2.68-0.081v0.678c1.291-0.032,1.355,0.097,1.372,1.259v7.23c-0.012,0.827-0.05,1.13-0.535,1.225
c-0.534-0.065-0.678-0.098-0.93-0.676l-4.18-9.764h-1.145l-0.242,0.662l-0.274,0.662l-0.42,1.113l-2.55,6.262
c-0.227,0.533-0.404,1.13-0.823,1.565c-0.274,0.162-0.597,0.194-0.92,0.194v0.694c0.774-0.049,1.356-0.081,1.823-0.081
c0.469,0,1.049,0.032,1.824,0.081v-0.646c-0.322-0.097-1.404-0.113-1.242-0.581l0.725-2.179h4.051l0.855,2.179
c0.21,0.549-0.774,0.484-1.21,0.581v0.646c1.064-0.049,1.872-0.081,2.501-0.081c0.374,0,0.806,0.012,1.319,0.031
c0,0,0.4,0.032,0.59,0.024c0.188,0.008,0.592-0.024,0.592-0.024c0.52-0.019,0.963-0.031,1.336-0.031
c0.629,0,1.436,0.032,2.502,0.081v-0.694c-1.308,0.048-1.372-0.081-1.372-1.243v-7.844c0-0.113,0.032-0.242,0.065-0.371
c0.307-0.048,0.645-0.081,0.968-0.081c1.26,0,2.18,0.678,2.18,2.001c0,1.517-1.098,2.438-2.582,2.308l-0.113,0.29l3.615,5.633
c0.484-0.049,0.968-0.081,1.452-0.081c0.454,0,0.92,0.026,1.376,0.064l0.001,0.017c0.049-0.002,0.173-0.002,0.189,0v-0.005
c1.6-0.046,2.82-0.076,3.797-0.076c1.002,0,2.26,0.032,4.068,0.081l0.161-2.776H188.572z M163.25,20.45l1.613-4.099l1.679,4.099
H163.25z"/>
    <path class="st1" d="M18.729,0C9.606,0,1.968,6.359,0.004,14.887H2.1C3.937,8.803,9.584,4.371,16.267,4.371
c6.695,0,12.347,4.448,14.173,10.548h-1.948c-1.57-3.188-4.847-5.383-8.641-5.383c-5.319,0-9.631,4.312-9.631,9.632
c0,5.319,4.312,9.631,9.631,9.631c3.763,0,7.018-2.16,8.603-5.305h1.962c-1.85,6.061-7.483,10.47-14.149,10.47
c-6.655,0-12.283-4.394-14.143-10.438H0c1.958,8.537,9.6,14.904,18.729,14.904c10.612,0,19.216-8.603,19.216-19.215
C37.945,8.603,29.342,0,18.729,0z"/>
    <g>
        <path class="st0" d="M100.732,26.956c0.277,0.023,0.555,0.056,0.832,0.056s0.555-0.032,0.832-0.056v3.006
    c0.566,0.023,1.132,0.056,1.697,0.056c0.566,0,1.131-0.033,1.697-0.056v-3.006c0.277,0.023,0.555,0.056,0.832,0.056
    c0.277,0,0.555-0.032,0.832-0.056v7.609c-0.277-0.021-0.555-0.055-0.832-0.055c-0.277,0-0.555,0.033-0.832,0.055V30.85
    c-0.566-0.022-1.131-0.056-1.697-0.056c-0.565,0-1.131,0.033-1.697,0.056v3.716c-0.277-0.021-0.555-0.055-0.832-0.055
    s-0.555,0.033-0.832,0.055V26.956z"/>
        <path class="st0" d="M113.969,26.956c-0.021,0.156-0.055,0.322-0.055,0.478s0.033,0.321,0.055,0.477
    c-0.676-0.089-1.431-0.177-2.562-0.155v2.385h1.154c0.498,0,0.953-0.044,1.364-0.1c-0.022,0.155-0.056,0.322-0.056,0.476
    c0,0.156,0.033,0.322,0.056,0.478c-0.411-0.056-0.866-0.101-1.364-0.101h-1.154v2.818c1.132-0.012,1.887-0.067,2.562-0.156
    c-0.021,0.156-0.055,0.322-0.055,0.478c0,0.155,0.033,0.321,0.055,0.478h-4.226v-7.555H113.969z"/>
        <path class="st0" d="M116.867,32.247c-0.288,0.844-0.566,1.531-0.776,2.297c-0.178-0.012-0.345-0.033-0.521-0.033
    c-0.178,0-0.355,0.022-0.533,0.033l3.172-7.688c0.145,0.022,0.277,0.033,0.422,0.033c0.144,0,0.277-0.012,0.422-0.033l3.094,7.709
    c-0.321-0.021-0.632-0.055-0.953-0.055c-0.321,0-0.633,0.033-0.954,0.055c-0.255-0.82-0.488-1.575-0.788-2.318H116.867z
     M119.196,31.571l-0.987-2.585l-1.043,2.585H119.196z"/>
        <path class="st0" d="M125.312,33.712c0.965,0,1.785-0.078,2.54-0.156c-0.023,0.156-0.056,0.322-0.056,0.478
    c0,0.155,0.033,0.321,0.056,0.478h-4.204v-7.555c0.277,0.023,0.555,0.056,0.832,0.056c0.277,0,0.555-0.032,0.832-0.056V33.712z"/>
        <path class="st0" d="M132.316,34.565c-0.277-0.021-0.555-0.055-0.832-0.055c-0.277,0-0.555,0.033-0.832,0.055v-6.821
    c-0.787,0-1.486,0.077-2.063,0.155c0.022-0.155,0.056-0.31,0.056-0.476c0-0.156-0.033-0.311-0.056-0.467h5.713
    c-0.023,0.156-0.056,0.311-0.056,0.467c0,0.166,0.033,0.321,0.056,0.476c-0.655-0.078-1.31-0.155-1.985-0.155V34.565z"/>
        <path class="st0" d="M135.957,26.956c0.277,0.023,0.555,0.056,0.832,0.056s0.555-0.032,0.831-0.056v3.006
    c0.566,0.023,1.132,0.056,1.697,0.056c0.566,0,1.132-0.033,1.698-0.056v-3.006c0.275,0.023,0.554,0.056,0.831,0.056
    c0.277,0,0.555-0.032,0.832-0.056v7.609c-0.277-0.021-0.555-0.055-0.832-0.055c-0.277,0-0.556,0.033-0.831,0.055V30.85
    c-0.566-0.022-1.132-0.056-1.698-0.056c-0.565,0-1.131,0.033-1.697,0.056v3.716c-0.276-0.021-0.554-0.055-0.831-0.055
    s-0.555,0.033-0.832,0.055V26.956z"/>
        <path class="st0" d="M151.966,28.388c-0.222-0.588-0.644-0.965-1.275-0.965c-0.876,0-1.22,0.454-1.22,1.087
    c0,1.497,3.371,1.22,3.371,3.76c0,1.42-1.221,2.44-2.939,2.44c-0.609,0-1.264-0.145-1.785-0.478
    c0.133-0.466,0.255-0.932,0.321-1.408h0.211c0.167,0.766,0.765,1.22,1.53,1.22c0.688,0,1.298-0.389,1.298-1.152
    c0-1.775-3.306-1.133-3.306-3.805c0-1.276,0.877-2.33,2.562-2.33c0.799,0,1.509,0.3,1.753,0.532
    c-0.134,0.354-0.244,0.722-0.354,1.099H151.966z"/>
        <path class="st0" d="M156.25,31.36c-0.832-1.432-1.563-2.929-2.385-4.404c0.333,0.023,0.666,0.056,0.999,0.056
    c0.333,0,0.665-0.032,0.998-0.056c0.3,0.61,0.632,1.32,0.942,1.975c0.3,0.621,0.566,1.165,0.699,1.331
    c0.422-0.521,1.242-2.362,1.664-3.306c0.178,0.023,0.354,0.033,0.543,0.033c0.178,0,0.355-0.01,0.533-0.033
    c-0.799,1.42-1.631,2.762-2.33,4.182v3.428c-0.277-0.021-0.555-0.055-0.832-0.055c-0.277,0-0.555,0.033-0.832,0.055V31.36z"/>
        <path class="st0" d="M165.227,28.388c-0.223-0.588-0.644-0.965-1.275-0.965c-0.877,0-1.221,0.454-1.221,1.087
    c0,1.497,3.372,1.22,3.372,3.76c0,1.42-1.22,2.44-2.939,2.44c-0.61,0-1.265-0.145-1.786-0.478c0.133-0.466,0.256-0.932,0.322-1.408
    h0.211c0.166,0.766,0.765,1.22,1.53,1.22c0.688,0,1.298-0.389,1.298-1.152c0-1.775-3.306-1.133-3.306-3.805
    c0-1.276,0.876-2.33,2.562-2.33c0.799,0,1.51,0.3,1.754,0.532c-0.134,0.354-0.244,0.722-0.355,1.099H165.227z"/>
        <path class="st0" d="M170.875,34.565c-0.277-0.021-0.555-0.055-0.832-0.055c-0.277,0-0.555,0.033-0.832,0.055v-6.821
    c-0.787,0-1.486,0.077-2.062,0.155c0.021-0.155,0.056-0.31,0.056-0.476c0-0.156-0.034-0.311-0.056-0.467h5.713
    c-0.023,0.156-0.057,0.311-0.057,0.467c0,0.166,0.033,0.321,0.057,0.476c-0.655-0.078-1.309-0.155-1.986-0.155V34.565z"/>
        <path class="st0" d="M178.653,26.956c-0.022,0.156-0.056,0.322-0.056,0.478s0.033,0.321,0.056,0.477
    c-0.677-0.089-1.431-0.177-2.562-0.155v2.385h1.153c0.499,0,0.954-0.044,1.364-0.1c-0.022,0.155-0.056,0.322-0.056,0.476
    c0,0.156,0.033,0.322,0.056,0.478c-0.41-0.056-0.865-0.101-1.364-0.101h-1.153v2.818c1.131-0.012,1.885-0.067,2.562-0.156
    c-0.022,0.156-0.056,0.322-0.056,0.478c0,0.155,0.033,0.321,0.056,0.478h-4.226v-7.555H178.653z"/>
        <path class="st0" d="M187.143,26.956c0.154,0.023,0.311,0.056,0.465,0.056c0.156,0,0.322-0.032,0.477-0.056
    c0.345,2.984,0.599,5.402,0.976,7.609c-0.311-0.021-0.609-0.055-0.92-0.055c-0.311,0-0.588,0.033-0.898,0.055
    c-0.089-1.764-0.311-3.461-0.478-5.169c-0.843,1.697-1.675,3.395-2.462,5.114c-0.145-0.023-0.277-0.034-0.422,0
    c-0.709-1.531-1.586-3.25-2.43-4.992c-0.254,1.953-0.432,3.494-0.465,5.047c-0.178-0.021-0.345-0.055-0.521-0.055
    c-0.178,0-0.333,0.033-0.511,0.055c0.399-2.229,0.755-4.803,1.132-7.609c0.155,0.023,0.299,0.056,0.455,0.056
    c0.154,0,0.311-0.032,0.466-0.056c0.798,1.742,1.675,3.473,2.551,5.213C185.356,30.595,186.299,28.853,187.143,26.956z"/>
    </g>
</svg>